<?xml version="1.0" encoding="UTF-8"?>
<svg version="1.1" xmlns="http://www.w3.org/2000/svg" width="46" height="52">
<path d="M0 0 C15.18 0 30.36 0 46 0 C46 17.16 46 34.32 46 52 C30.82 52 15.64 52 0 52 C0 34.84 0 17.68 0 0 Z " fill="#E6506C" transform="translate(0,0)"/>
<path d="M0 0 C15.18 0 30.36 0 46 0 C46 17.16 46 34.32 46 52 C30.82 52 15.64 52 0 52 C0 47.71 0 43.42 0 39 C0.66 39.99 1.32 40.98 2 42 C4.23289343 44.95318163 5.89663383 46.93108922 9 49 C13.25633876 49.44415 17.53555019 49.32410323 21.8125 49.3125 C22.98876953 49.32861328 24.16503906 49.34472656 25.37695312 49.36132812 C33.68155889 49.50438337 33.68155889 49.50438337 41 46 C43.78658057 42.1821289 44.38364399 39.47290518 44.3984375 34.78125 C44.40230469 33.60175781 44.40617187 32.42226563 44.41015625 31.20703125 C44.39855469 29.98371094 44.38695312 28.76039062 44.375 27.5 C44.38660156 26.27667969 44.39820313 25.05335937 44.41015625 23.79296875 C44.40435547 22.02373047 44.40435547 22.02373047 44.3984375 20.21875 C44.39505371 19.14560547 44.39166992 18.07246094 44.38818359 16.96679688 C43.94708496 13.59558268 42.99342136 11.73004886 41 9 C35.38965369 4.76682272 28.64447195 5.55833766 21.9375 5.625 C20.76638672 5.61339844 19.59527344 5.60179687 18.38867188 5.58984375 C16.69387695 5.59564453 16.69387695 5.59564453 14.96484375 5.6015625 C13.42751587 5.60663818 13.42751587 5.60663818 11.85913086 5.61181641 C5.83722351 6.4294095 3.78944646 9.26319192 0 14 C0 9.38 0 4.76 0 0 Z " fill="#1F0205" transform="translate(0,0)"/>
<path d="M0 0 C0.99 0 1.98 0 3 0 C3.185625 1.093125 3.37125 2.18625 3.5625 3.3125 C4.57516528 6.9490498 4.57516528 6.9490498 6.69140625 8.1328125 C8.83650143 9.05926212 8.83650143 9.05926212 12 10 C12 10.99 12 11.98 12 13 C10.329375 13.2784375 10.329375 13.2784375 8.625 13.5625 C7.42875 14.036875 6.2325 14.51125 5 15 C3.45913678 18.51400668 3.45913678 18.51400668 3 22 C2.01 22 1.02 22 0 22 C-0.350625 20.88625 -0.70125 19.7725 -1.0625 18.625 C-1.80330632 16.66818521 -1.80330632 16.66818521 -3 15 C-6.55892288 13.46954015 -6.55892288 13.46954015 -10 13 C-10 12.01 -10 11.02 -10 10 C-7.36 9.34 -4.72 8.68 -2 8 C-1.34 5.36 -0.68 2.72 0 0 Z " fill="#FDF2F4" transform="translate(21,16)"/>
<path d="M0 0 C0.99 1.485 0.99 1.485 2 3 C4.23289343 5.95318163 5.89663383 7.93108922 9 10 C11.74516409 10.2927401 11.74516409 10.2927401 14.83984375 10.23046875 C15.98517578 10.22853516 17.13050781 10.22660156 18.31054688 10.22460938 C19.50744141 10.21236328 20.70433594 10.20011719 21.9375 10.1875 C23.13052734 10.18685547 24.32355469 10.18621094 25.55273438 10.18554688 C32.35741975 10.25097543 32.35741975 10.25097543 39 9 C38.01049805 10.97558594 38.01049805 10.97558594 36 13 C33.14470106 13.35569326 30.68082619 13.46681139 27.83203125 13.390625 C27.03721848 13.38496521 26.2424057 13.37930542 25.42350769 13.37347412 C22.88589134 13.35109004 20.3496892 13.30089262 17.8125 13.25 C16.09181727 13.2299375 14.37111241 13.21168629 12.65039062 13.1953125 C8.43304918 13.15121894 4.21676431 13.08217965 0 13 C0 8.71 0 4.42 0 0 Z " fill="#3B090F" transform="translate(0,39)"/>
<path d="M0 0 C0.33 0 0.66 0 1 0 C1 8.91 1 17.82 1 27 C-2.3 27 -5.6 27 -9 27 C-7.02902734 23.45224921 -4.91011828 20.81311434 -2 18 C-0.414131 14.828262 -0.62133555 11.36486178 -0.4375 7.875 C-0.39431641 7.12089844 -0.35113281 6.36679687 -0.30664062 5.58984375 C-0.2005168 3.72678112 -0.09974999 1.86341476 0 0 Z " fill="#2D060B" transform="translate(45,25)"/>
<path d="M0 0 C0.66 0.33 1.32 0.66 2 1 C0.24976105 3.22175281 -0.60228592 3.94475643 -3.4519043 4.34057617 C-4.39976807 4.32486572 -5.34763184 4.30915527 -6.32421875 4.29296875 C-7.35224609 4.28330078 -8.38027344 4.27363281 -9.43945312 4.26367188 C-11.04723633 4.2259668 -11.04723633 4.2259668 -12.6875 4.1875 C-13.77095703 4.17396484 -14.85441406 4.16042969 -15.97070312 4.14648438 C-18.64763405 4.11110643 -21.32356838 4.06174189 -24 4 C-24.33 3.34 -24.66 2.68 -25 2 C-24.31373535 1.97494385 -23.6274707 1.9498877 -22.92041016 1.92407227 C-19.82174183 1.80828573 -16.72339077 1.68548115 -13.625 1.5625 C-12.54476563 1.52318359 -11.46453125 1.48386719 -10.3515625 1.44335938 C-8.8046875 1.38051758 -8.8046875 1.38051758 -7.2265625 1.31640625 C-6.27346191 1.27974854 -5.32036133 1.24309082 -4.33837891 1.20532227 C-1.97867651 1.14236535 -1.97867651 1.14236535 0 0 Z " fill="#450C14" transform="translate(37,48)"/>
<path d="M0 0 C0.66 0 1.32 0 2 0 C2 0.66 2 1.32 2 2 C2.66 2 3.32 2 4 2 C4 2.66 4 3.32 4 4 C3.34 4 2.68 4 2 4 C2 4.66 2 5.32 2 6 C1.01 6 0.02 6 -1 6 C-1.33 4.68 -1.66 3.36 -2 2 C-1.34 2 -0.68 2 0 2 C0 1.34 0 0.68 0 0 Z " fill="#FBE1E6" transform="translate(30,17)"/>
</svg>
