<?xml version="1.0" encoding="UTF-8"?>
<svg version="1.1" xmlns="http://www.w3.org/2000/svg" width="2048" height="2048">
<path d="M0 0 C675.84 0 1351.68 0 2048 0 C2048 675.84 2048 1351.68 2048 2048 C1372.16 2048 696.32 2048 0 2048 C0 1372.16 0 696.32 0 0 Z " fill="#FEFEFE" transform="translate(0,0)"/>
<path d="M0 0 C2.56191644 1.52471263 5.07758585 3.06008355 7.54956055 4.72802734 C8.52368896 5.38174316 9.49781738 6.03545898 10.50146484 6.70898438 C11.53440674 7.40878418 12.56734863 8.10858398 13.6315918 8.82958984 C15.80865359 10.29316355 17.98573709 11.75670497 20.1628418 13.22021484 C21.23405273 13.94273437 22.30526367 14.66525391 23.40893555 15.40966797 C27.47322531 18.14796358 31.55141014 20.86505994 35.6315918 23.57958984 C37.0652862 24.53516802 38.49887897 25.49089868 39.93237305 26.44677734 C41.01639404 27.16945801 41.01639404 27.16945801 42.12231445 27.90673828 C60.3112793 40.03271484 60.3112793 40.03271484 62.85693359 41.73046875 C64.5737427 42.87457613 66.29134676 44.01749156 68.00976562 45.15917969 C79.09458387 52.53074569 90.11599158 59.99671643 101.14746094 67.44775391 C102.98347248 68.68772551 104.81970542 69.92736937 106.65615845 71.16668701 C108.48758939 72.4029633 110.31830181 73.64030471 112.14828491 74.87872314 C116.85042459 78.05545029 121.57067407 81.19894743 126.32739258 84.29345703 C127.75735313 85.22918045 127.75735313 85.22918045 129.21620178 86.18380737 C131.02565178 87.36589271 132.84002077 88.54049634 134.66014099 89.70608521 C140.01492332 93.21393939 144.51389104 96.59418834 147.4440918 102.45458984 C148.33769364 107.80488947 147.71138022 111.71552136 144.8190918 116.32958984 C141.50964811 120.73961596 138.7776175 122.61162932 133.4050293 123.97021484 C127.38671316 124.73508445 123.308618 122.49704135 118.4050293 119.28662109 C117.71707275 118.8462149 117.02911621 118.40580872 116.3203125 117.95205688 C107.86962834 112.50624514 99.54702729 106.86235742 91.22805786 101.21835327 C86.48998731 98.00384054 81.7457915 94.79838446 77.00268555 91.59130859 C76.07967148 90.96680313 75.15665741 90.34229767 74.20567322 89.6988678 C64.4813596 83.12132268 54.71697374 76.60521199 44.93676758 70.11108398 C42.18602205 68.283091 39.43792602 66.45115912 36.69018555 64.61865234 C32.88613422 62.08170435 29.08057886 59.54705158 25.27284241 57.01564026 C22.92241762 55.45290718 20.57263069 53.88921651 18.22290039 52.32543945 C17.02297086 51.52718823 15.82276926 50.72934583 14.62231445 49.93188477 C12.85384559 48.75694964 11.08637665 47.58052366 9.3190918 46.40380859 C8.28526367 45.71633545 7.25143555 45.0288623 6.1862793 44.32055664 C3.4440918 42.45458984 3.4440918 42.45458984 1.3269043 40.64526367 C-0.45829239 39.22885086 -0.45829239 39.22885086 -2.44798279 39.73953247 C-4.64892177 40.48614221 -6.24950903 41.39596728 -8.16552734 42.70483398 C-9.20561195 43.40774818 -9.20561195 43.40774818 -10.26670837 44.12486267 C-11.01312088 44.6371492 -11.75953339 45.14943573 -12.52856445 45.67724609 C-14.15976047 46.78097895 -15.79145206 47.88397969 -17.42358398 48.98632812 C-18.27027649 49.56006165 -19.11696899 50.13379517 -19.98931885 50.72491455 C-24.11153462 53.50295723 -28.26922021 56.22628391 -32.42700195 58.95068359 C-34.1527147 60.08395405 -35.8782981 61.21742151 -37.60375977 62.35107422 C-38.48229614 62.92817139 -39.36083252 63.50526855 -40.26599121 64.09985352 C-58.8679161 76.32352362 -77.37093021 88.68626508 -95.79589844 101.17504883 C-96.66135788 101.76108383 -97.52681732 102.34711884 -98.41850281 102.95091248 C-100.01896197 104.0349727 -101.61857824 105.120279 -103.21711731 106.20716858 C-103.93703354 106.69487228 -104.65694977 107.18257599 -105.39868164 107.68505859 C-106.08474487 108.16356766 -106.77080811 108.64207672 -107.47766113 109.13508606 C-109.5559082 110.45458984 -109.5559082 110.45458984 -111.83435059 111.4394989 C-114.26142704 112.5584768 -115.78830865 113.43825455 -117.5559082 115.45458984 C-118.74204688 120.05342812 -118.62604688 124.55991791 -118.5559082 129.28662109 C-118.56343128 130.64713354 -118.57446928 132.0076307 -118.58886719 133.36808777 C-118.61724679 136.93774599 -118.59805046 140.50560628 -118.56878662 144.07519531 C-118.54736015 147.72196065 -118.57114099 151.36840433 -118.59106445 155.01513672 C-118.62347415 162.16194819 -118.60560379 169.3078393 -118.5559082 176.45458984 C-115.38103343 174.56289304 -112.2085173 172.66727404 -109.03637695 170.77099609 C-108.14688354 170.24107056 -107.25739014 169.71114502 -106.34094238 169.16516113 C-99.83787959 165.27406986 -93.50907453 161.18295133 -87.2355957 156.93505859 C-75.90010827 149.26157179 -64.28439052 141.99660306 -52.72973633 134.66015625 C-46.96431335 130.9968363 -41.22052795 127.30244753 -35.4934082 123.57958984 C-30.39196499 120.27092057 -25.27882461 116.98320107 -20.1184082 113.76708984 C-19.08844727 113.12384766 -18.05848633 112.48060547 -16.99731445 111.81787109 C-14.5559082 110.45458984 -14.5559082 110.45458984 -12.5559082 110.45458984 C-14.4309082 115.32958984 -14.4309082 115.32958984 -15.5559082 116.45458984 C-16.26522265 123.8268088 -16.32857333 129.60807506 -11.5559082 135.45458984 C-9.00397853 137.363667 -6.37389565 138.97035859 -3.5559082 140.45458984 C-5.00211778 144.79321858 -8.33499136 146.14661245 -12.0559082 148.45458984 C-13.62117373 149.44522035 -15.18627347 150.43611285 -16.7512207 151.42724609 C-17.55333984 151.93143066 -18.35545898 152.43561523 -19.18188477 152.95507812 C-22.787624 155.23258228 -26.35721364 157.56477771 -29.9309082 159.89208984 C-35.88134541 163.75082903 -41.8656343 167.55287544 -47.8684082 171.32958984 C-55.16896411 175.92395634 -62.41521564 180.59560363 -69.63964844 185.30859375 C-77.61294576 190.50491763 -85.62625403 195.63783585 -93.6484375 200.75830078 C-98.17158006 203.645699 -102.69262569 206.53482428 -107.18481445 209.47021484 C-107.84304199 209.89915039 -108.50126953 210.32808594 -109.17944336 210.77001953 C-110.84755421 211.85934306 -112.5124361 212.95360696 -114.17700195 214.04833984 C-116.5559082 215.45458984 -116.5559082 215.45458984 -118.5559082 215.45458984 C-118.79925722 239.66355482 -118.95085125 263.87159795 -118.99375153 288.0817852 C-119.01580243 299.32366031 -119.0676715 310.56390959 -119.19018555 321.80517578 C-119.296917 331.60529771 -119.34724526 341.40382517 -119.33035707 351.20454228 C-119.32337314 356.39298737 -119.34427839 361.57788387 -119.43278503 366.7656517 C-119.51529646 371.65432246 -119.52209006 376.53738839 -119.47203255 381.4264431 C-119.46683544 383.21554474 -119.48877686 385.00497374 -119.54057121 386.79333305 C-120.01251012 396.14098705 -120.01251012 396.14098705 -115.96788085 404.15144801 C-112.09387393 407.24097651 -107.87016411 409.48427451 -103.39305669 411.57211751 C-101.12420619 412.66195745 -99.07529402 413.9821896 -97.01171875 415.41894531 C-96.41288376 415.82034225 -95.81404877 416.2217392 -95.19706726 416.63529968 C-94.61810196 417.02683731 -94.03913666 417.41837494 -93.44262695 417.82177734 C-92.08848296 418.73025841 -90.73431552 419.63870452 -89.38012695 420.54711914 C-88.70385254 421.00210785 -88.02757812 421.45709656 -87.33081055 421.9258728 C-75.54160672 429.85376766 -63.68458046 437.63754288 -51.62817383 445.15429688 C-48.00015642 447.43078377 -44.40204953 449.75318198 -40.8059082 452.07958984 C-39.88648438 452.67259888 -39.88648438 452.67259888 -38.94848633 453.27758789 C-34.19584409 456.35679067 -29.48412281 459.49647227 -24.77368164 462.63964844 C-23.73109695 463.33503975 -23.73109695 463.33503975 -22.66744995 464.04447937 C-20.96349844 465.18102656 -19.25968903 466.3177868 -17.5559082 467.45458984 C-17.12382237 452.60763345 -16.83242387 437.76271197 -16.7035675 422.91001892 C-16.64051504 416.01101901 -16.5333441 409.11823741 -16.31811523 402.22216797 C-16.11015426 395.55483079 -16.03074408 388.89682641 -16.02667236 382.22573853 C-16.00469403 379.6927658 -15.94094113 377.15977313 -15.83319092 374.6289978 C-15.02330136 360.79669718 -15.02330136 360.79669718 -20.8969326 348.84034348 C-26.65400441 344.00517771 -32.9780709 340.38864222 -39.65342522 336.97721481 C-43.68025618 334.86476371 -47.3935145 332.37554611 -51.13793945 329.80615234 C-52.36582552 328.99852038 -53.59536613 328.19339153 -54.82739258 327.39208984 C-55.409646 327.01181641 -55.99189941 326.63154297 -56.59179688 326.23974609 C-57.17807861 325.85689453 -57.76436035 325.47404297 -58.3684082 325.07958984 C-60.24498892 323.85262274 -62.12137569 322.62535951 -63.99772644 321.39804077 C-65.64286681 320.32217571 -67.28845678 319.24699825 -68.93408203 318.171875 C-70.81339121 316.94093536 -72.68666034 315.70075509 -74.5559082 314.45458984 C-74.99069214 311.42062378 -74.99069214 311.42062378 -75.07104492 307.46972656 C-75.08915222 306.75076706 -75.10725952 306.03180756 -75.12591553 305.2910614 C-75.18005466 302.90543064 -75.21014377 300.52037819 -75.2355957 298.13427734 C-75.25206335 296.91084311 -75.25206335 296.91084311 -75.26886368 295.66269302 C-75.32561388 291.34170206 -75.36341965 287.02100362 -75.38647461 282.69970703 C-75.41402863 278.24618724 -75.50673153 273.79656277 -75.61478996 269.3443737 C-75.68593094 265.91262764 -75.70767477 262.48180082 -75.71637344 259.04938126 C-75.72910018 257.4090006 -75.76026664 255.76865058 -75.81063461 254.12899399 C-76.17857756 241.31862357 -76.17857756 241.31862357 -72.16325378 236.70603943 C-69.37599835 234.65358601 -66.63752384 233.02023018 -63.5559082 231.45458984 C-62.25660695 230.63128726 -60.96363274 229.7976428 -59.68481445 228.94287109 C-58.49826872 228.21392508 -57.30942276 227.4887112 -56.1184082 226.76708984 C-49.93353798 222.95997696 -43.8226657 219.05310705 -37.7434082 215.07958984 C-30.14741322 210.11854984 -22.50722417 205.23420012 -14.82226562 200.41210938 C-14.0872583 199.95046387 -13.35225098 199.48881836 -12.5949707 199.01318359 C-11.90048828 198.58247559 -11.20600586 198.15176758 -10.49047852 197.70800781 C-8.56270772 196.49501697 -8.56270772 196.49501697 -6.86352539 195.15820312 C-5.3293457 193.98974609 -5.3293457 193.98974609 -2.5559082 192.45458984 C2.08935565 193.31229379 6.2817565 196.80297856 10.1940918 199.39208984 C11.72786392 200.39612143 13.26172032 201.40002429 14.7956543 202.40380859 C15.57328125 202.91476074 16.3509082 203.42571289 17.15209961 203.95214844 C20.61294435 206.22079336 24.09163033 208.46153924 27.5690918 210.70458984 C35.45072237 215.79881448 43.30952278 220.9279447 51.16333008 226.06494141 C52.07840332 226.66274414 52.99347656 227.26054688 53.9362793 227.87646484 C54.73404785 228.39821289 55.53181641 228.91996094 56.35375977 229.45751953 C59.29904467 231.48171574 59.29904467 231.48171574 62.1857605 232.63783264 C65.53799651 234.28116652 67.86773847 235.73709027 70.4440918 238.45458984 C72.11718344 244.11132209 71.99639741 249.62254291 71.9050293 255.48193359 C71.91244877 257.15671998 71.92313249 258.83149478 71.93692017 260.50624084 C71.95310135 264.00995076 71.92970924 267.51056732 71.87817383 271.01391602 C71.81552191 275.48935784 71.85155149 279.95754078 71.91747093 284.43271542 C71.95737181 287.88979547 71.94450546 291.34517558 71.91606522 294.80230904 C71.90876508 296.45082029 71.91760072 298.09948962 71.9433403 299.74781609 C72.09959781 312.56711438 72.09959781 312.56711438 68.03265381 317.20391846 C65.25152727 319.25077169 62.51419038 320.88460667 59.4440918 322.45458984 C58.15279591 323.29084051 56.87012878 324.14071459 55.6003418 325.00927734 C55.04472344 325.36062209 54.48910509 325.71196684 53.91664982 326.0739584 C52.59920539 326.91257741 51.29294156 327.76901855 49.9984293 328.64262009 C45.37231238 331.73152479 40.71202591 334.33780316 35.70555115 336.76690674 C22.50828847 343.48456582 22.50828847 343.48456582 13.92805862 355.01933289 C11.79583984 364.50944356 12.20346169 374.11425299 12.63625264 383.77531338 C12.79370074 387.96762096 12.79149219 392.15999409 12.8065033 396.35479736 C12.85775024 404.27748751 13.04252555 412.19077552 13.28036255 420.10983586 C13.62337399 431.74429126 13.75566623 443.38162963 13.89646816 455.01997757 C13.91764274 456.74096048 13.93892309 458.4619421 13.96031189 460.18292236 C13.97056426 461.02316617 13.98081663 461.86340998 13.99137968 462.72911572 C14.05656304 467.70799349 14.1580946 472.6844723 14.2932235 477.66193533 C14.37558891 480.75181656 14.44318528 483.84193253 14.50900269 486.9322052 C14.54354481 488.36184992 14.58531171 489.79134154 14.63491631 491.22054291 C15.05393342 503.37220958 15.05393342 503.37220958 12.60081482 507.20684814 C8.63537416 511.33963953 5.12249121 514.54207736 -0.6809082 515.14208984 C-8.35611084 515.02165157 -14.18589041 510.19846362 -20.27954102 506.015625 C-22.5840842 504.43526795 -24.90622049 502.88479538 -27.2355957 501.34130859 C-30.6950485 499.04724266 -34.14708525 496.74256502 -37.5949707 494.43115234 C-49.1863996 486.67857137 -60.8801911 479.07933927 -72.5559082 471.45458984 C-73.49354004 470.84196289 -74.43117188 470.22933594 -75.3972168 469.59814453 C-83.90429238 464.04283233 -92.41990601 458.5029334 -101.01699352 453.08751774 C-103.08211821 451.76230316 -105.128546 450.40719277 -107.14909077 449.01495266 C-112.5534803 445.34786447 -117.59299746 442.29852467 -123.76337057 440.1052472 C-134.51458039 436.21512462 -144.79053342 430.73852642 -150.5559082 420.45458984 C-157.48793466 400.87949958 -155.52445717 377.05883686 -155.37018128 356.58333906 C-155.32481242 350.40177522 -155.34167444 344.2231473 -155.40015221 338.04171944 C-155.40838485 337.1566315 -155.41661749 336.27154356 -155.42509961 335.35963478 C-155.4419488 333.56060305 -155.45887064 331.76157201 -155.47586425 329.96254165 C-155.62636022 313.14677483 -155.56739726 296.33665869 -155.44082692 279.52102531 C-155.33166235 264.20101858 -155.47372306 248.89564178 -155.73710302 233.57789295 C-156.00666627 217.7791025 -156.11080118 201.98709297 -156.03792304 186.18605334 C-155.99975279 177.34187712 -156.02341548 168.50902734 -156.21668434 159.66660881 C-157.34485462 104.68052062 -157.34485462 104.68052062 -146.18232727 91.69469833 C-136.33620821 82.03096696 -124.2190285 75.99674247 -111.62861252 70.69617462 C-105.04715145 67.89847847 -99.50864011 64.1043024 -93.7668457 59.87646484 C-92.0891868 58.73040818 -90.40775542 57.58982759 -88.72045898 56.45800781 C-87.93705139 55.92576599 -87.1536438 55.39352417 -86.34649658 54.84515381 C-71.24798643 44.59089365 -56.07575931 34.46816509 -40.76196289 24.53808594 C-35.08366697 20.84797191 -29.42114554 17.13376034 -23.75750732 13.42120361 C-21.86135825 12.17843282 -19.96479201 10.93630119 -18.06811523 9.69433594 C-16.90257571 8.93084542 -15.73704778 8.16733719 -14.5715332 7.40380859 C-13.04447754 6.40353638 -13.04447754 6.40353638 -11.48657227 5.38305664 C-8.47882916 3.45759103 -8.47882916 3.45759103 -5.49243164 1.08276367 C-2.5559082 -0.54541016 -2.5559082 -0.54541016 0 0 Z " fill="#1F2D3A" transform="translate(1026.555908203125,673.54541015625)"/>
<path d="M0 0 C2.09084026 1.10316471 4.06348621 2.30650861 6.0480957 3.59082031 C6.78398926 4.04561768 7.51988281 4.50041504 8.27807617 4.96899414 C10.50995693 6.36001898 12.71946608 7.78053499 14.9230957 9.21582031 C15.84735352 9.81644287 15.84735352 9.81644287 16.7902832 10.42919922 C19.78379478 12.38745471 22.75427397 14.37794889 25.71606445 16.38378906 C30.8938057 19.88432333 36.1264943 23.30035457 41.3605957 26.71582031 C42.86082275 27.69494385 42.86082275 27.69494385 44.39135742 28.69384766 C49.78149774 32.20163266 55.19732718 35.65612456 60.6730957 39.02832031 C67.91697683 43.49523655 74.97996177 48.22802471 82.0480957 52.96582031 C90.42701612 58.58222815 98.83662722 64.13294779 107.3605957 69.52832031 C108.23965576 70.08608154 109.11871582 70.64384277 110.02441406 71.21850586 C113.59885632 73.48447357 117.1753024 75.74696987 120.76098633 77.99511719 C123.55050562 79.74641049 126.33106814 81.51122515 129.1105957 83.27832031 C129.95485107 83.80272705 130.79910645 84.32713379 131.66894531 84.86743164 C132.44761963 85.36525146 133.22629395 85.86307129 134.02856445 86.37597656 C135.0517981 87.01998413 135.0517981 87.01998413 136.09570312 87.67700195 C138.91164595 90.04826282 140.67104746 92.45238246 141.20410252 96.18186474 C141.32072309 98.61535986 141.33979636 101.03269795 141.32714844 103.46899414 C141.33401169 104.39321671 141.34087494 105.31743927 141.34794617 106.26966858 C141.36622678 109.32088649 141.36237397 112.37159069 141.35668945 115.42285156 C141.36125145 117.54888577 141.36655707 119.67491851 141.37257385 121.8009491 C141.38150806 126.25709014 141.37907918 130.71305201 141.36914062 135.16918945 C141.35766526 140.86879143 141.37783924 146.56777255 141.40705776 152.26729298 C141.42544216 156.65890916 141.42512255 161.0503773 141.41942024 165.44202232 C141.41926722 167.54268958 141.42529537 169.643367 141.43771172 171.74399757 C141.4526576 174.68787667 141.441917 177.63061838 141.42480469 180.57446289 C141.43930664 181.86604309 141.43930664 181.86604309 141.45410156 183.18371582 C141.36811012 190.2798808 139.48972618 195.64918984 134.4230957 200.71582031 C129.24996993 202.93287422 124.46747115 202.98397109 118.9230957 202.21582031 C115.3605957 200.40332031 115.3605957 200.40332031 112.9230957 198.21582031 C112.3455957 197.76207031 111.7680957 197.30832031 111.1730957 196.84082031 C107.63692658 192.24380046 107.70826719 186.97592333 108.00097656 181.44482422 C108.06336254 179.87964569 108.12475339 178.31442727 108.18528748 176.74917603 C108.23740293 175.51446501 108.23740293 175.51446501 108.29057121 174.25481033 C108.49308223 168.92535391 108.56597605 163.59214164 108.6629858 158.25991249 C108.75520392 153.59276004 108.89178099 148.93526685 109.12646484 144.27294922 C110.88953874 124.27239977 110.88953874 124.27239977 104.60018921 106.04547119 C98.78029564 100.78088345 92.1473957 97.54636808 84.9546814 94.53765869 C80.99364192 92.81055792 77.62735977 90.58640437 74.13793945 88.06738281 C73.08203613 87.35783447 72.02613281 86.64828613 70.93823242 85.91723633 C69.9226123 85.23201904 68.90699219 84.54680176 67.8605957 83.84082031 C59.51729307 78.23922491 51.12196106 72.75184403 42.56762695 67.47753906 C38.66995603 65.07178955 34.82612601 62.58648165 30.9855957 60.09082031 C29.58593001 59.18315428 28.18618703 58.27560741 26.78637695 57.36816406 C26.03050293 56.87815918 25.27462891 56.3881543 24.49584961 55.88330078 C23.64684082 55.33303223 22.79783203 54.78276367 21.9230957 54.21582031 C20.38468018 53.21832764 20.38468018 53.21832764 18.81518555 52.20068359 C15.99971622 50.37775033 13.18204693 48.55837399 10.36203003 46.74249268 C8.7021124 45.67203281 7.04511979 44.59704163 5.38818359 43.52197266 C4.36329834 42.86277832 3.33841309 42.20358398 2.2824707 41.52441406 C1.36949219 40.9345874 0.45651367 40.34476074 -0.48413086 39.73706055 C-2.96569732 38.28106802 -5.39249935 37.23442445 -8.0769043 36.21582031 C-14.1864717 32.70256148 -19.75792219 29.17276662 -22.0769043 22.21582031 C-22.22139581 20.24017679 -22.29752429 18.2590227 -22.3269043 16.27832031 C-22.36557617 14.71791016 -22.36557617 14.71791016 -22.4050293 13.12597656 C-22.03550091 9.84861167 -21.1244056 8.71053901 -19.0769043 6.21582031 C-19.0769043 5.22582031 -19.0769043 4.23582031 -19.0769043 3.21582031 C-12.85872775 -0.40202786 -7.13262506 -2.69307531 0 0 Z " fill="#D3AB72" transform="translate(1032.076904296875,779.7841796875)"/>
<path d="M0 0 C2.45678711 1.34765625 2.45678711 1.34765625 5.02734375 3.0625 C6.4649707 4.01189453 6.4649707 4.01189453 7.93164062 4.98046875 C8.92357422 5.64691406 9.91550781 6.31335938 10.9375 7 C12.88373082 8.29224484 14.83035052 9.58390416 16.77734375 10.875 C17.76694092 11.55812256 18.75653809 12.24124512 19.77612305 12.94506836 C22.1494495 14.45785054 24.28557063 15.64145723 26.81176758 16.80688477 C35.88711801 21.24275248 35.88711801 21.24275248 37.81716919 26.02459717 C38.99749753 31.06711131 39.03826316 36.06442867 38.88012695 41.21948242 C38.8124592 43.93913987 38.89964398 46.62382508 39.00195312 49.34179688 C39.10411946 61.4080585 39.10411946 61.4080585 35.57904053 65.75039673 C32.04200279 68.87093432 28.05833545 71.03595728 23.83407593 73.08932495 C21.44419522 74.27597415 19.26881654 75.71074353 17.0625 77.20703125 C15.01869284 78.52035949 12.97258885 79.83002558 10.92578125 81.13867188 C10.24902344 81.57373047 9.57226562 82.00878906 8.875 82.45703125 C7.90433594 83.07892334 7.90433594 83.07892334 6.9140625 83.71337891 C4.95821891 85.02808499 3.11535862 86.4475152 1.25 87.88671875 C-2 90 -2 90 -4.01757812 89.74633789 C-7.14609475 88.56852073 -9.76842228 86.64008261 -12.5 84.75 C-13.82726941 83.84769849 -15.15544576 82.94673008 -16.484375 82.046875 C-17.56041992 81.31694336 -17.56041992 81.31694336 -18.65820312 80.57226562 C-22.98917164 77.66448443 -27.37175266 74.83587418 -31.75 72 C-33.4531717 70.89590537 -35.15629972 69.79174336 -36.859375 68.6875 C-37.94943848 67.98173828 -37.94943848 67.98173828 -39.06152344 67.26171875 C-40.71493629 66.18554273 -42.35853349 65.09431101 -44 64 C-44.4159831 61.03265392 -44.63643925 58.28212977 -44.71484375 55.30078125 C-44.73905899 54.43237106 -44.76327423 53.56396088 -44.78822327 52.66923523 C-44.82975586 50.82760596 -44.86191831 48.98574544 -44.88549805 47.14379883 C-44.93705383 44.336792 -45.06853352 41.54050557 -45.20117188 38.73632812 C-45.54444343 25.65859264 -45.54444343 25.65859264 -41.52587891 21.34301758 C-38.41444234 19.54154408 -35.3664464 18.24856575 -32 17 C-29.82936513 15.74733699 -29.82936513 15.74733699 -27.96875 14.41015625 C-27.3917334 14.02190674 -26.8147168 13.63365723 -26.22021484 13.23364258 C-25.65254395 12.84716553 -25.08487305 12.46068848 -24.5 12.0625 C-23.87689941 11.64572998 -23.25379883 11.22895996 -22.61181641 10.79956055 C-19.56199399 8.75637378 -16.54062164 6.68239578 -13.5546875 4.546875 C-12.50539063 3.80953125 -11.45609375 3.0721875 -10.375 2.3125 C-9.45460938 1.64863281 -8.53421875 0.98476563 -7.5859375 0.30078125 C-4.38420284 -1.30975899 -3.38778397 -0.98686942 0 0 Z " fill="#FCFCFC" transform="translate(1028,906)"/>
<path d="M0 0 C5.28 0 10.56 0 16 0 C16 27.39 16 54.78 16 83 C11.38 83 6.76 83 2 83 C2 80.69 2 78.38 2 76 C1.50371094 76.39832031 1.00742187 76.79664063 0.49609375 77.20703125 C-6.7226783 82.83685158 -12.630628 85.69294232 -21.94140625 85.40234375 C-30.35309262 84.29582562 -35.82608418 79.76636421 -41.30859375 73.57421875 C-45.47052785 67.24000495 -46.55964121 61.11714377 -46.5 53.625 C-46.49427979 52.78936523 -46.48855957 51.95373047 -46.48266602 51.09277344 C-46.22931522 42.33383093 -43.57339432 36.57788414 -37.6875 30.125 C-31.32508229 24.34967234 -25.69837947 22.25407232 -17.0390625 22.5390625 C-10.36353765 23.5515457 -5.30814653 27.0188901 0 31 C0 20.77 0 10.54 0 0 Z " fill="#1F2A37" transform="translate(816,1278)"/>
<path d="M0 0 C5.28 0 10.56 0 16 0 C16 27.39 16 54.78 16 83 C11.38 83 6.76 83 2 83 C2 80.69 2 78.38 2 76 C1.34 76 0.68 76 0 76 C-0.495 77.485 -0.495 77.485 -1 79 C-2.92578125 80.3515625 -2.92578125 80.3515625 -5.3125 81.625 C-6.09238281 82.05039063 -6.87226562 82.47578125 -7.67578125 82.9140625 C-13.91350701 85.82849571 -21.17123103 86.22148137 -27.73046875 84.12890625 C-37.18510624 79.76632768 -41.25723605 73.4240877 -45 64 C-45.33 63.34 -45.66 62.68 -46 62 C-46.95923285 51.14488396 -46.65891703 42.14717478 -40 33 C-35.04029669 27.39904212 -29.56809118 23.52731532 -21.98828125 22.65234375 C-14.28662104 22.30348806 -9.25574653 23.53160962 -3 28 C-2.01 28.66 -1.02 29.32 0 30 C0 20.1 0 10.2 0 0 Z " fill="#1F2A36" transform="translate(1150,1278)"/>
<path d="M0 0 C6.55875 -0.0825 13.1175 -0.165 19.875 -0.25 C22.94917236 -0.30462402 22.94917236 -0.30462402 26.08544922 -0.36035156 C36.70245756 -0.47059756 45.59105739 -0.27828986 54.375 6.375 C59.95856828 11.95856828 63.26886954 17.73832884 63.375 25.6875 C63.23205627 33.98844638 60.35178587 41.6075891 55 48 C48.89261966 52.70504194 42.73288594 55.27559676 34.9453125 55.1953125 C33.94516113 55.19031738 32.94500977 55.18532227 31.91455078 55.18017578 C30.66399902 55.16196777 29.41344727 55.14375977 28.125 55.125 C24.12375 55.08375 20.1225 55.0425 16 55 C16 63.58 16 72.16 16 81 C10.72 81 5.44 81 0 81 C0 54.27 0 27.54 0 0 Z " fill="#222E3B" transform="translate(583,1280)"/>
<path d="M0 0 C5.61 0 11.22 0 17 0 C17.73863281 1.85238281 18.47726562 3.70476562 19.23828125 5.61328125 C20.26274363 8.17979864 21.28741586 10.74623099 22.3125 13.3125 C22.58188385 13.98693146 22.8512677 14.66136292 23.1288147 15.35623169 C26.94236294 24.8996182 30.79556921 34.42574934 34.6875 43.9375 C38.23716468 52.62642279 41.74799264 61.32932752 45.1875 70.0625 C45.57446045 71.03888428 45.9614209 72.01526855 46.36010742 73.02124023 C46.70920166 73.91270752 47.0582959 74.8041748 47.41796875 75.72265625 C47.72500732 76.50390869 48.0320459 77.28516113 48.34838867 78.09008789 C49 80 49 80 49 82 C42.73 82 36.46 82 30 82 C29.175 79.40125 28.35 76.8025 27.5 74.125 C27.23896484 73.30789551 26.97792969 72.49079102 26.70898438 71.64892578 C25 66.22222222 25 66.22222222 25 64 C13.78 64 2.56 64 -9 64 C-9.99 67.63 -10.98 71.26 -12 75 C-12.99 77.31 -13.98 79.62 -15 82 C-20.94 82 -26.88 82 -33 82 C-30.87324534 75.61973603 -28.4387644 69.42747476 -25.9375 63.1875 C-25.68510559 62.55659454 -25.43271118 61.92568909 -25.17266846 61.27566528 C-18.44428862 44.46931879 -11.47821524 27.76001407 -4.51194763 11.0512085 C-4.21007034 10.32653381 -3.90819305 9.60185913 -3.59716797 8.85522461 C-3.20511673 7.91506752 -3.20511673 7.91506752 -2.80514526 6.95591736 C-1.85347502 4.64405087 -0.92850662 2.32126655 0 0 Z " fill="#202B38" transform="translate(1053,1280)"/>
<path d="M0 0 C7.87561839 4.22442189 13.63643336 10.82726882 16.46875 19.32421875 C16.64435807 22.23470656 16.74593869 25.09971244 16.78125 28.01171875 C16.81025391 28.78966797 16.83925781 29.56761719 16.86914062 30.36914062 C16.95199223 38.0106081 14.16680903 44.14386612 9.07421875 49.87890625 C1.25630273 56.91693284 -7.59584272 59.85201328 -17.95703125 59.56640625 C-26.67576697 58.74613066 -33.31396735 55.49235292 -39.53125 49.32421875 C-46.09227864 41.03491915 -47.28064533 32.69085419 -46.53125 22.32421875 C-45.36294844 14.22230139 -40.57114426 8.60465885 -34.53125 3.32421875 C-23.90911643 -4.22229705 -11.97098803 -5.01725234 0 0 Z " fill="#202A35" transform="translate(1376.53125,1303.67578125)"/>
<path d="M0 0 C6.76509613 3.77303712 13.31360916 9.2344977 16.046875 16.67578125 C17.9416774 26.09679179 18.13350193 36.05785462 13.0078125 44.44921875 C12.54503906 45.11050781 12.08226562 45.77179688 11.60546875 46.453125 C10.90421875 47.525625 10.20296875 48.598125 9.48046875 49.703125 C1.62259702 57.21935013 -7.14660631 59.80009252 -17.8046875 59.671875 C-26.38677193 58.94699306 -33.19329787 54.98685726 -39.01953125 48.765625 C-45.47127734 40.95486365 -47.13324217 34.29628581 -46.84765625 24.1171875 C-45.88098138 16.30045446 -41.89640966 10.00445849 -36.39453125 4.453125 C-25.11989318 -3.35128603 -12.94710193 -5.43128057 0 0 Z " fill="#202B39" transform="translate(744.39453125,1303.546875)"/>
<path d="M0 0 C5.61 0 11.22 0 17 0 C17.00410889 1.21582764 17.00821777 2.43165527 17.01245117 3.68432617 C17.0342567 8.2041233 17.08856113 12.72305163 17.15258789 17.24243164 C17.17575551 19.19677389 17.19016071 21.15124077 17.19555664 23.10571289 C17.20485532 25.91892043 17.24586475 28.73017112 17.29296875 31.54296875 C17.2890361 32.41398727 17.28510345 33.2850058 17.28105164 34.18241882 C17.38574916 38.55553303 17.59724388 40.46374775 20.2980957 44.05981445 C23.30378608 46.21814295 25.31739136 46.61310192 29.0078125 46.35546875 C33.14647672 45.61700121 36.02651643 44.23584909 38.63598633 40.9230957 C40.42293136 37.09365362 40.47790708 33.56390816 40.51171875 29.41796875 C40.52966995 28.60378983 40.54762115 27.7896109 40.56611633 26.95075989 C40.6200821 24.36305848 40.65407025 21.77554007 40.6875 19.1875 C40.72068528 17.42770899 40.75517606 15.66794208 40.79101562 13.90820312 C40.87824741 9.60544444 40.93843033 5.30350787 41 1 C46.28 1 51.56 1 57 1 C57 20.47 57 39.94 57 60 C52.38 60 47.76 60 43 60 C42.34 57.69 41.68 55.38 41 53 C40.41992188 53.48210937 39.83984375 53.96421875 39.2421875 54.4609375 C32.45432239 59.9494753 27.36341964 62.54360594 18.5234375 62.3046875 C12.43278534 61.56928368 8.4319421 58.92318884 4.625 54.1875 C-0.17869514 47.67970072 -0.28393086 40.67472412 -0.1953125 32.91015625 C-0.1924826 31.96563095 -0.18965271 31.02110565 -0.18673706 30.04795837 C-0.17560684 27.05267276 -0.1505156 24.05769414 -0.125 21.0625 C-0.11496095 19.0227908 -0.10583672 16.98307688 -0.09765625 14.94335938 C-0.07569096 9.9621226 -0.04121076 4.98111322 0 0 Z " fill="#202B37" transform="translate(847,1301)"/>
<path d="M0 0 C0.99 0.66 1.98 1.32 3 2 C2.39305845 5.15330554 1.3583335 7.18888867 -0.5625 9.75 C-1.01753906 10.36359375 -1.47257812 10.9771875 -1.94140625 11.609375 C-2.29074219 12.06828125 -2.64007812 12.5271875 -3 13 C-3.66 12.731875 -4.32 12.46375 -5 12.1875 C-5.99 11.795625 -6.98 11.40375 -8 11 C-8.59296875 10.73574219 -9.1859375 10.47148438 -9.796875 10.19921875 C-14.82261845 8.07835501 -19.54777117 7.17194947 -25 8 C-25.99 8.66 -26.98 9.32 -28 10 C-27.96906827 12.41585574 -27.96906827 12.41585574 -27 15 C-21.56475743 18.25129314 -15.7617922 19.40653049 -9.65625 20.83984375 C-3.56868446 22.77147512 0.32527549 25.82816551 4 31 C5.91573896 34.83147793 5.59862641 39.13570631 4.31640625 43.12890625 C1.74897983 48.74315405 -1.57683156 52.16523358 -7.0625 55.10546875 C-17.63592343 58.32530115 -30.87471665 57.20223107 -40.72265625 52.38671875 C-42.92961821 51.04285684 -44.97089826 49.5979762 -47 48 C-45.61735163 45.13132769 -44.07851447 42.43975968 -42.375 39.75 C-41.92898438 39.04359375 -41.48296875 38.3371875 -41.0234375 37.609375 C-40.68570312 37.07828125 -40.34796875 36.5471875 -40 36 C-37.88701852 37.03001831 -35.83557273 38.09672192 -33.80859375 39.2890625 C-27.44567052 42.87410327 -22.264039 43.84606112 -15 43 C-14.01 42.67 -13.02 42.34 -12 42 C-12 40.02 -12 38.04 -12 36 C-13.62565919 35.4581136 -15.25135136 34.91632594 -16.87719727 34.375 C-18.25717873 33.91451561 -19.63657 33.45225896 -21.01538086 32.98828125 C-23.93050889 32.00935369 -26.83966615 31.04738157 -29.7890625 30.17578125 C-35.68226527 28.42402166 -39.98400997 26.20725687 -43.375 20.8125 C-44.65269516 15.06287177 -44.9828158 9.96563161 -42.3125 4.625 C-30.74242912 -8.50859397 -14.7515063 -7.19054221 0 0 Z " fill="#222B35" transform="translate(1317,1306)"/>
<path d="M0 0 C3.67547566 2.53651838 6.7403016 5.38617981 9.609375 8.80078125 C6.73443029 12.78147392 3.78820171 15.23650122 -0.390625 17.80078125 C-2.90958549 16.68124325 -4.78797155 15.48096573 -6.953125 13.73828125 C-10.58732614 10.84955727 -13.72952854 10.44289416 -18.33203125 10.52734375 C-21.84770142 10.99432081 -23.77242458 12.4801036 -26.390625 14.80078125 C-30.010099 19.56324705 -31.09924158 23.3149786 -30.84375 29.30078125 C-29.88313221 34.60074148 -27.08763862 38.33309379 -23.078125 41.80078125 C-18.11137235 43.64887526 -14.05267128 43.41997496 -9.203125 41.61328125 C-6.15897302 39.65149442 -3.8361384 37.46207525 -1.390625 34.80078125 C2.239375 37.11078125 5.869375 39.42078125 9.609375 41.80078125 C6.96594464 48.40935714 3.35489877 51.83911336 -2.94140625 55.13671875 C-11.12720463 58.47737742 -19.79402897 59.58899406 -28.140625 56.17578125 C-29.57998624 55.42616816 -30.99788527 54.63382183 -32.390625 53.80078125 C-33.44056641 53.18203125 -33.44056641 53.18203125 -34.51171875 52.55078125 C-41.17157053 48.11927307 -44.38351032 41.99747557 -47.765625 34.92578125 C-49.58313801 25.83821619 -48.83463282 18.71855584 -44.2890625 10.56640625 C-33.89506345 -4.57546891 -16.21265352 -9.17986733 0 0 Z " fill="#212B38" transform="translate(964.390625,1305.19921875)"/>
<path d="M0 0 C5.94 0 11.88 0 18 0 C18.845625 2.578125 19.69125 5.15625 20.5625 7.8125 C23.80950593 17.62858248 27.37240356 27.31925448 31 37 C34.25765512 29.02173998 37.27181829 20.96110964 40.25 12.875 C40.71341843 11.61974616 41.17695934 10.36453754 41.640625 9.109375 C42.76161551 6.07335905 43.8809758 3.03674125 45 0 C50.61 0 56.22 0 62 0 C59.42928461 9.62568619 55.51794943 18.60400428 51.625 27.75 C47.0950122 38.40957246 42.78156979 49.04950833 39 60 C34.05 60 29.1 60 24 60 C21.70581545 54.61521616 19.41300017 49.2298519 17.12133789 43.84399414 C16.345002 42.01994901 15.5683213 40.19605057 14.79125977 38.37231445 C12.54614679 33.10275711 10.30723837 27.83064704 8.07879639 22.55401611 C7.36212935 20.8573297 6.64424216 19.16115813 5.92510986 17.46551514 C4.9248808 15.103041 3.93201512 12.73761497 2.94140625 10.37109375 C2.64201645 9.6667067 2.34262665 8.96231964 2.03416443 8.23658752 C0.82249794 5.32228423 0 3.19019109 0 0 Z " fill="#202C38" transform="translate(1174,1302)"/>
<path d="M0 0 C5.61 0 11.22 0 17 0 C17 5.28 17 10.56 17 16 C21.29 16 25.58 16 30 16 C30 19.96 30 23.92 30 28 C25.38 28 20.76 28 16 28 C16.11978302 32.37845166 16.24238084 36.75663075 16.37231445 41.13476562 C16.41566589 42.62462641 16.45734084 44.11453695 16.49731445 45.60449219 C16.55501215 47.74429327 16.61870755 49.88384385 16.68359375 52.0234375 C16.72025146 53.31169434 16.75690918 54.59995117 16.79467773 55.92724609 C16.79530675 58.9127682 16.79530675 58.9127682 18 61 C24.08408472 61.19814261 24.08408472 61.19814261 30 60 C31.45184478 64.53701494 32.23509196 68.18061476 32 73 C23.98285675 76.74914423 17.4110658 78.48154133 8.75 76 C4.10432484 73.94021366 2.03933816 70.54426744 0 66 C-0.60332933 63.00827021 -0.59049877 60.16715292 -0.48828125 57.125 C-0.47766914 55.91009888 -0.47766914 55.91009888 -0.46684265 54.6706543 C-0.4391089 52.11278359 -0.37641784 49.55719594 -0.3125 47 C-0.28738963 45.25393812 -0.26458128 43.50784154 -0.24414062 41.76171875 C-0.18935231 37.50694822 -0.1032336 33.25385958 0 29 C-2.64 29 -5.28 29 -8 29 C-8 24.71 -8 20.42 -8 16 C-5.36 16 -2.72 16 0 16 C0 10.72 0 5.44 0 0 Z " fill="#212C38" transform="translate(987,1286)"/>
<path d="M0 0 C0 5.28 0 10.56 0 16 C-2.289375 16.12375 -2.289375 16.12375 -4.625 16.25 C-10.24872476 16.81475878 -13.60503002 18.61688097 -17.62817383 22.62011719 C-19.60778366 26.05440026 -19.47954054 29.40413882 -19.51171875 33.265625 C-19.52966995 34.05902283 -19.54762115 34.85242065 -19.56611633 35.66986084 C-19.62016926 38.19652031 -19.65409812 40.72299144 -19.6875 43.25 C-19.7206776 44.96617201 -19.75516767 46.68231919 -19.79101562 48.3984375 C-19.87835776 52.59898466 -19.93846549 56.79867861 -20 61 C-25.61 61 -31.22 61 -37 61 C-37 41.2 -37 21.4 -37 1 C-31.72 1 -26.44 1 -21 1 C-20.67 3.97 -20.34 6.94 -20 10 C-18.700625 8.3603125 -18.700625 8.3603125 -17.375 6.6875 C-11.95072694 0.42677362 -8.53604164 0 0 0 Z " fill="#222E3A" transform="translate(693,1301)"/>
<path d="M0 0 C0 5.28 0 10.56 0 16 C-2.536875 16.12375 -2.536875 16.12375 -5.125 16.25 C-10.32013512 16.71803019 -13.08344745 17.58556957 -17 21 C-19.53760827 24.80641241 -19.34977475 27.96860355 -19.4140625 32.38671875 C-19.43342865 33.20372757 -19.4527948 34.02073639 -19.4727478 34.86250305 C-19.53250352 37.47072934 -19.57891258 40.07899986 -19.625 42.6875 C-19.6631835 44.4563994 -19.70223546 46.22528028 -19.7421875 47.99414062 C-19.83983607 52.32933045 -19.91943488 56.66432422 -20 61 C-25.61 61 -31.22 61 -37 61 C-37 41.2 -37 21.4 -37 1 C-31.72 1 -26.44 1 -21 1 C-20.67 3.97 -20.34 6.94 -20 10 C-19.505 9.278125 -19.01 8.55625 -18.5 7.8125 C-12.64301623 1.22339326 -9.05613999 0 0 0 Z " fill="#232D37" transform="translate(1442,1301)"/>
<path d="M0 0 C5.28 0 10.56 0 16 0 C16 19.8 16 39.6 16 60 C10.72 60 5.44 60 0 60 C0 40.2 0 20.4 0 0 Z " fill="#1F2B38" transform="translate(1244,1302)"/>
<path d="M0 0 C4.45951541 1.98200685 7.8210777 4.93688598 10.25 9.1875 C12.0056647 15.77124261 11.56244336 21.30728167 8.2109375 27.2734375 C5.73314975 30.80628325 3.04231553 32.65256149 -1 34 C-5.71851148 34.47185115 -8.77746756 34.5504191 -12.8125 31.9375 C-17.19871671 28.33239037 -18.64303447 24.64445895 -19.3828125 19.1640625 C-19.76390064 12.58614974 -18.94799366 8.60441666 -14.703125 3.5234375 C-10.23951213 -0.46924374 -5.75984313 -0.67094947 0 0 Z " fill="#F9FAFB" transform="translate(734,1315)"/>
<path d="M0 0 C5.42997553 1.98402952 8.24319095 4.93506335 11.0859375 9.89453125 C12.94729944 14.18202735 12.70920276 18.81872232 11.27734375 23.22265625 C9.28066507 27.54744611 7.08135163 30.38374896 3 33 C-1.42842293 34.47614098 -5.64316652 35.04074033 -9.97265625 33.12890625 C-13.58719161 30.78828356 -16.10304565 28.26362559 -17.5625 24.0859375 C-18.76291734 18.36251912 -19.10552219 12.37502225 -16.375 7.0625 C-11.77211035 1.12719492 -7.37601031 -1.20966569 0 0 Z " fill="#F9FBFB" transform="translate(1365,1315)"/>
<path d="M0 0 C5.2590971 1.89327496 7.79008594 4.59783215 11 9 C12.7019824 14.10594721 13.03016629 20.03226707 11.24609375 25.171875 C8.7010867 29.84271147 5.97596827 32.34134391 1 34 C-2.91881746 34.59997399 -6.4525074 34.80339175 -10.0390625 32.94140625 C-15.68007646 28.51261018 -17.56809361 23.45525109 -18.4375 16.5 C-17.71483807 10.7187046 -15.64789646 6.53018957 -11.375 2.5625 C-7.32224759 -0.10378448 -4.90062241 -0.32670816 0 0 Z " fill="#F9FAFA" transform="translate(804,1315)"/>
<path d="M0 0 C5.67549553 2.04317839 9.29873721 5.59747441 12 11 C12.4896025 16.81101979 12.80365453 22.16766768 10.4375 27.5625 C6.14722159 31.85277841 2.48345643 34.18590002 -3.5625 34.5625 C-8.55481152 34.32436589 -10.62880811 32.61199131 -14 29 C-18.08079338 23.32195098 -17.74132038 17.75517781 -17 11 C-15.72954465 6.84410368 -13.47392794 4.41073755 -10.1875 1.5625 C-6.38621657 -0.30087423 -4.18875335 -0.52359417 0 0 Z " fill="#FAFBFB" transform="translate(1138,1315)"/>
<path d="M0 0 C3.01125 -0.061875 6.0225 -0.12375 9.125 -0.1875 C10.06230957 -0.21481201 10.99961914 -0.24212402 11.96533203 -0.27026367 C17.06987699 -0.32081987 20.6042585 0.11020697 25 3 C27.55669154 6.02766104 28.8474933 8.08495982 29.5 12 C28.68618506 16.88288965 25.80001153 20.86086004 22 24 C19.17588235 24.94137255 17.47081968 25.11725382 14.55078125 25.09765625 C13.78677002 25.09515869 13.02275879 25.09266113 12.2355957 25.09008789 C11.27097412 25.08098389 10.30635254 25.07187988 9.3125 25.0625 C4.7028125 25.0315625 4.7028125 25.0315625 0 25 C0 16.75 0 8.5 0 0 Z " fill="#FBFCFC" transform="translate(600,1295)"/>
<path d="M0 0 C0.66 0 1.32 0 2 0 C3.4304204 3.78795106 4.8543979 7.57825448 6.27246094 11.37084961 C6.75572265 12.66057458 7.24073669 13.94964438 7.72753906 15.23803711 C8.42713915 17.09054958 9.11991233 18.94563569 9.8125 20.80078125 C10.23144531 21.91622314 10.65039062 23.03166504 11.08203125 24.1809082 C12 27 12 27 12 30 C4.41 30 -3.18 30 -11 30 C-7.625 19.875 -7.625 19.875 -5.95703125 15.52734375 C-5.60576172 14.60888672 -5.25449219 13.69042969 -4.89257812 12.74414062 C-4.53615234 11.81794922 -4.17972656 10.89175781 -3.8125 9.9375 C-3.44447266 8.97650391 -3.07644531 8.01550781 -2.69726562 7.02539062 C-1.79990328 4.68292528 -0.90078716 2.34114999 0 0 Z " fill="#EFF2F3" transform="translate(1060,1301)"/>
<path d="M0 0 C3.22083055 1.87393777 5.495267 3.21180307 6.546875 6.9375 C6.81098044 10.81104649 6.19708562 12.69483516 4.0625 16 C0.50459026 18.32353289 -1.65265527 18.79544168 -5.83984375 18.55078125 C-8.30095619 17.92326434 -9.34709173 17.22724996 -11.0625 15.375 C-13.17027232 11.70339661 -13.79149224 10.13334836 -13 6 C-9.27164865 0.40747298 -6.71012047 -0.67101205 0 0 Z " fill="#212C34" transform="translate(1255,1276)"/>
<path d="M0 0 C2.88601551 2.45043233 2.98665787 2.86400916 3.38768005 6.95146179 C3.40861292 8.64289482 3.41276207 10.33458291 3.40405273 12.02612305 C3.41091599 12.95005356 3.41777924 13.87398407 3.42485046 14.82591248 C3.44318786 17.88800323 3.43926938 20.94958472 3.43359375 24.01171875 C3.43815387 26.14061144 3.44345893 28.26950266 3.44947815 30.39839172 C3.45842412 34.86648526 3.45597113 39.33440023 3.44604492 43.80249023 C3.43458318 49.51784357 3.45471651 55.23257651 3.48396206 60.94784832 C3.50234977 65.34804685 3.50202593 69.74809764 3.49632454 74.14832497 C3.49617148 76.25457438 3.50220304 78.3608339 3.51461601 80.46704674 C3.52956356 83.42072188 3.51881911 86.37326358 3.50170898 89.3269043 C3.51137695 90.19109985 3.52104492 91.05529541 3.53100586 91.94567871 C3.44519095 99.05249797 1.57495677 104.42504323 -3.5 109.5 C-8.63437688 111.70044723 -13.49284699 111.32080503 -19 111 C-19 110.67 -19 110.34 -19 110 C-15.37 110 -11.74 110 -8 110 C-8 109.34 -8 108.68 -8 108 C-6.68 108 -5.36 108 -4 108 C2.62819328 95.21705582 1.15204875 80.38353297 1.1328125 66.30859375 C1.13348791 64.54696133 1.13445991 62.785329 1.13571167 61.0236969 C1.13717399 57.36206154 1.13507941 53.70045082 1.13037109 50.03881836 C1.12463644 45.35165956 1.12798553 40.66455757 1.13394356 35.97740078 C1.13755657 32.35286531 1.13640782 28.72834333 1.13381577 25.10380745 C1.13315052 23.37467505 1.13396083 21.6455414 1.13629532 19.91641045 C1.13883817 17.50731011 1.13495992 15.09830242 1.12939453 12.68920898 C1.13141876 11.98112091 1.13344299 11.27303284 1.13552856 10.54348755 C1.11997101 6.90338136 0.86239894 3.54036194 0 0 Z " fill="#CDB897" transform="translate(1170,871)"/>
<path d="M0 0 C0.79921875 0.01804687 1.5984375 0.03609375 2.421875 0.0546875 C3.02515625 0.07789063 3.6284375 0.10109375 4.25 0.125 C4.25 0.455 4.25 0.785 4.25 1.125 C3.55132813 1.15078125 2.85265625 1.1765625 2.1328125 1.203125 C1.22273438 1.25984375 0.31265625 1.3165625 -0.625 1.375 C-1.52992187 1.42140625 -2.43484375 1.4678125 -3.3671875 1.515625 C-5.90151486 1.87019787 -5.90151486 1.87019787 -6.9453125 4.05859375 C-7.34363281 5.08146484 -7.34363281 5.08146484 -7.75 6.125 C-8.41 6.723125 -9.07 7.32125 -9.75 7.9375 C-12.33526288 10.76513127 -12.89911562 13.43783434 -13.75 17.125 C-14.41 16.465 -15.07 15.805 -15.75 15.125 C-15.27414 10.72329498 -14.2293513 6.45641617 -10.875 3.4375 C-7.07252193 1.0889106 -4.54444435 -0.13366013 0 0 Z " fill="#C0A47B" transform="translate(1025.75,778.875)"/>
<path d="M0 0 C0.33 0 0.66 0 1 0 C1.86074287 17.00445359 1.86074287 17.00445359 -1.25 21.4375 C-5.62490605 25.514117 -8.26928174 26.25501561 -14.25 26.125 C-15.32765625 26.10695313 -16.4053125 26.08890625 -17.515625 26.0703125 C-18.33546875 26.04710937 -19.1553125 26.02390625 -20 26 C-20 25.67 -20 25.34 -20 25 C-16.37 25 -12.74 25 -9 25 C-9 24.34 -9 23.68 -9 23 C-7.68 23 -6.36 23 -5 23 C-2.12698116 17.45917795 -0.72828778 12.9877987 -0.375 6.6875 C-0.30023437 5.43324219 -0.22546875 4.17898438 -0.1484375 2.88671875 C-0.09945313 1.93410156 -0.05046875 0.98148438 0 0 Z " fill="#CBAF85" transform="translate(1171,956)"/>
<path d="M0 0 C5.61 0.33 11.22 0.66 17 1 C17 1.66 17 2.32 17 3 C11.06 3 5.12 3 -1 3 C-0.67 2.01 -0.34 1.02 0 0 Z " fill="#444A51" transform="translate(1021,1359)"/>
<path d="M0 0 C3.95906817 1.43308135 7.28718181 3.33141949 10.8125 5.625 C11.78832031 6.25664063 12.76414062 6.88828125 13.76953125 7.5390625 C14.50558594 8.02117188 15.24164062 8.50328125 16 9 C11.75279253 10.41573582 9.5689976 8.76329613 5.6875 6.875 C4.8521875 6.441875 4.8521875 6.441875 4 6 C4 5.01 4 4.02 4 3 C2.68 2.34 1.36 1.68 0 1 C0 0.67 0 0.34 0 0 Z " fill="#CDAE80" transform="translate(1046,790)"/>
<path d="M0 0 C-1.875 4.875 -1.875 4.875 -3 6 C-3.07271741 8.35313555 -3.08370868 10.70833668 -3.0625 13.0625 C-3.05347656 14.35285156 -3.04445313 15.64320313 -3.03515625 16.97265625 C-3.02355469 17.97167969 -3.01195312 18.97070312 -3 20 C-3.66 20 -4.32 20 -5 20 C-6.75987554 6.03577019 -6.75987554 6.03577019 -4.1875 2.125 C-2 0 -2 0 0 0 Z " fill="#3E3B32" transform="translate(1014,784)"/>
<path d="M0 0 C0.66 0 1.32 0 2 0 C1.57742724 1.4835001 1.13643678 2.96176424 0.6875 4.4375 C0.32205078 5.67306641 0.32205078 5.67306641 -0.05078125 6.93359375 C-0.52064453 7.95646484 -0.52064453 7.95646484 -1 9 C-1.99 9.33 -2.98 9.66 -4 10 C-5.20882096 12.00016466 -5.20882096 12.00016466 -6 14 C-6.66 13.67 -7.32 13.34 -8 13 C-8 12.34 -8 11.68 -8 11 C-6.8553125 10.1646875 -6.8553125 10.1646875 -5.6875 9.3125 C-2.31438066 6.41004848 -1.51014985 4.13304168 0 0 Z " fill="#2F3842" transform="translate(744,1336)"/>
<path d="M0 0 C5.96652354 1.57013777 10.82909025 4.75029782 16 8 C15.34 8.66 14.68 9.32 14 10 C11.66390677 8.52504318 9.33109833 7.04531255 7 5.5625 C6.33226562 5.14162109 5.66453125 4.72074219 4.9765625 4.28710938 C3.30037435 3.21811183 1.64799163 2.11197395 0 1 C0 0.67 0 0.34 0 0 Z " fill="#CDB088" transform="translate(1108,868)"/>
<path d="M0 0 C1.66666667 0.66666667 3.33333333 1.33333333 5 2 C5.86625 2.309375 6.7325 2.61875 7.625 2.9375 C10.04173196 4.01866956 11.27556194 5.02921364 13 7 C13.66 7.66 14.32 8.32 15 9 C14.01 9.495 14.01 9.495 13 10 C11.0170112 8.71389867 9.03866624 7.42150861 7.0625 6.125 C5.96035156 5.40570312 4.85820313 4.68640625 3.72265625 3.9453125 C1 2 1 2 0 0 Z " fill="#CAAF85" transform="translate(1066,840)"/>
<path d="M0 0 C0.66 0 1.32 0 2 0 C2 0.66 2 1.32 2 2 C2.515625 2.2475 3.03125 2.495 3.5625 2.75 C6.77184151 4.39581616 9.87585664 6.1976096 13 8 C12.67 8.99 12.34 9.98 12 11 C2.22095672 5.03416856 2.22095672 5.03416856 0 0 Z " fill="#B7A280" transform="translate(1012,805)"/>
<path d="M0 0 C6.30927835 1.05154639 6.30927835 1.05154639 9 3 C10.25 6.125 10.25 6.125 11 9 C10.34 8.67 9.68 8.34 9 8 C9 7.34 9 6.68 9 6 C8.2575 5.7525 7.515 5.505 6.75 5.25 C3.79875938 3.90852699 2.15185026 2.39094474 0 0 Z " fill="#F9F3DE" transform="translate(1161,863)"/>
<path d="M0 0 C0.33 0.66 0.66 1.32 1 2 C1.66 2 2.32 2 3 2 C4.625 4 4.625 4 6 6 C1.68607774 5.5206753 -0.16569547 4.2542015 -3 1 C-2.01 0.67 -1.02 0.34 0 0 Z " fill="#CAAB7B" transform="translate(1059,833)"/>
<path d="M0 0 C3.93673644 1.31224548 6.22719294 2.91910327 9 6 C5.51669784 5.35494404 2.90567134 4.01782732 0 2 C0 1.34 0 0.68 0 0 Z " fill="#CAAF85" transform="translate(1062,800)"/>
<path d="M0 0 C0 0.99 0 1.98 0 3 C-2 4.6875 -2 4.6875 -4 6 C-4.99 5.34 -5.98 4.68 -7 4 C-4.69 2.68 -2.38 1.36 0 0 Z " fill="#2F3A43" transform="translate(1001,791)"/>
</svg>
